<mxfile host="app.diagrams.net" modified="2021-03-16T22:35:28.711Z" agent="5.0 (Windows NT 10.0; Win64; x64) AppleWebKit/537.36 (KHTML, like Gecko) Chrome/88.0.4324.152 YaBrowser/21.2.3.100 Yowser/2.5 Safari/537.36" etag="UfpvKOi6SdnOivuiZw89" version="14.4.8" type="github">
  <diagram id="Wds3WwnXhRN4io4Kgcd5" name="Page-1">
    <mxGraphModel dx="1221" dy="678" grid="1" gridSize="10" guides="1" tooltips="1" connect="1" arrows="1" fold="1" page="1" pageScale="1" pageWidth="1169" pageHeight="827" math="0" shadow="0">
      <root>
        <mxCell id="0" />
        <mxCell id="1" parent="0" />
        <mxCell id="EYJ2kRQVxU2eaPTJzhmD-4" style="edgeStyle=orthogonalEdgeStyle;rounded=0;orthogonalLoop=1;jettySize=auto;html=1;exitX=1;exitY=0.5;exitDx=0;exitDy=0;" edge="1" parent="1" source="EYJ2kRQVxU2eaPTJzhmD-1" target="EYJ2kRQVxU2eaPTJzhmD-2">
          <mxGeometry relative="1" as="geometry" />
        </mxCell>
        <mxCell id="EYJ2kRQVxU2eaPTJzhmD-1" value="" style="rounded=1;whiteSpace=wrap;html=1;absoluteArcSize=1;arcSize=14;strokeWidth=2;" vertex="1" parent="1">
          <mxGeometry x="70" y="200" width="100" height="200" as="geometry" />
        </mxCell>
        <mxCell id="EYJ2kRQVxU2eaPTJzhmD-2" value="" style="rounded=1;whiteSpace=wrap;html=1;absoluteArcSize=1;arcSize=14;strokeWidth=2;" vertex="1" parent="1">
          <mxGeometry x="260" y="200" width="100" height="200" as="geometry" />
        </mxCell>
        <mxCell id="EYJ2kRQVxU2eaPTJzhmD-20" style="edgeStyle=orthogonalEdgeStyle;rounded=0;orthogonalLoop=1;jettySize=auto;html=1;exitX=1;exitY=0.5;exitDx=0;exitDy=0;entryX=0;entryY=0.5;entryDx=0;entryDy=0;" edge="1" parent="1" source="EYJ2kRQVxU2eaPTJzhmD-5" target="EYJ2kRQVxU2eaPTJzhmD-14">
          <mxGeometry relative="1" as="geometry" />
        </mxCell>
        <mxCell id="EYJ2kRQVxU2eaPTJzhmD-5" value="Настольные игры" style="rounded=1;whiteSpace=wrap;html=1;absoluteArcSize=1;arcSize=14;strokeWidth=2;" vertex="1" parent="1">
          <mxGeometry x="265" y="240" width="90" height="30" as="geometry" />
        </mxCell>
        <mxCell id="EYJ2kRQVxU2eaPTJzhmD-6" value="Инструментарий" style="rounded=1;whiteSpace=wrap;html=1;absoluteArcSize=1;arcSize=14;strokeWidth=2;" vertex="1" parent="1">
          <mxGeometry x="265" y="285" width="90" height="30" as="geometry" />
        </mxCell>
        <mxCell id="EYJ2kRQVxU2eaPTJzhmD-7" value="D&amp;amp;D помощник" style="rounded=1;whiteSpace=wrap;html=1;absoluteArcSize=1;arcSize=14;strokeWidth=2;" vertex="1" parent="1">
          <mxGeometry x="265" y="330" width="90" height="30" as="geometry" />
        </mxCell>
        <mxCell id="EYJ2kRQVxU2eaPTJzhmD-8" value="Меню" style="text;html=1;strokeColor=none;fillColor=none;align=center;verticalAlign=middle;whiteSpace=wrap;rounded=0;" vertex="1" parent="1">
          <mxGeometry x="290" y="170" width="40" height="20" as="geometry" />
        </mxCell>
        <mxCell id="EYJ2kRQVxU2eaPTJzhmD-9" value="Загрузочный экран" style="text;html=1;strokeColor=none;fillColor=none;align=center;verticalAlign=middle;whiteSpace=wrap;rounded=0;" vertex="1" parent="1">
          <mxGeometry x="100" y="170" width="40" height="20" as="geometry" />
        </mxCell>
        <mxCell id="EYJ2kRQVxU2eaPTJzhmD-13" value="Лого (?)" style="ellipse;whiteSpace=wrap;html=1;aspect=fixed;" vertex="1" parent="1">
          <mxGeometry x="90" y="270" width="60" height="60" as="geometry" />
        </mxCell>
        <mxCell id="EYJ2kRQVxU2eaPTJzhmD-30" style="edgeStyle=orthogonalEdgeStyle;rounded=0;orthogonalLoop=1;jettySize=auto;html=1;exitX=1;exitY=0.5;exitDx=0;exitDy=0;" edge="1" parent="1" source="EYJ2kRQVxU2eaPTJzhmD-14" target="EYJ2kRQVxU2eaPTJzhmD-19">
          <mxGeometry relative="1" as="geometry" />
        </mxCell>
        <mxCell id="EYJ2kRQVxU2eaPTJzhmD-14" value="" style="rounded=1;whiteSpace=wrap;html=1;absoluteArcSize=1;arcSize=14;strokeWidth=2;" vertex="1" parent="1">
          <mxGeometry x="450" y="120" width="100" height="200" as="geometry" />
        </mxCell>
        <mxCell id="EYJ2kRQVxU2eaPTJzhmD-15" value="Существующие игры" style="rounded=1;whiteSpace=wrap;html=1;absoluteArcSize=1;arcSize=14;strokeWidth=2;" vertex="1" parent="1">
          <mxGeometry x="455" y="160" width="90" height="50" as="geometry" />
        </mxCell>
        <mxCell id="EYJ2kRQVxU2eaPTJzhmD-33" style="edgeStyle=orthogonalEdgeStyle;rounded=0;orthogonalLoop=1;jettySize=auto;html=1;exitX=1;exitY=0.5;exitDx=0;exitDy=0;entryX=0;entryY=0.55;entryDx=0;entryDy=0;entryPerimeter=0;" edge="1" parent="1" source="EYJ2kRQVxU2eaPTJzhmD-16" target="EYJ2kRQVxU2eaPTJzhmD-31">
          <mxGeometry relative="1" as="geometry" />
        </mxCell>
        <mxCell id="EYJ2kRQVxU2eaPTJzhmD-16" value="Игры, созданные мной" style="rounded=1;whiteSpace=wrap;html=1;absoluteArcSize=1;arcSize=14;strokeWidth=2;" vertex="1" parent="1">
          <mxGeometry x="455" y="235" width="90" height="50" as="geometry" />
        </mxCell>
        <mxCell id="EYJ2kRQVxU2eaPTJzhmD-17" value="Настольные игры" style="text;html=1;strokeColor=none;fillColor=none;align=center;verticalAlign=middle;whiteSpace=wrap;rounded=0;" vertex="1" parent="1">
          <mxGeometry x="480" y="90" width="40" height="20" as="geometry" />
        </mxCell>
        <mxCell id="EYJ2kRQVxU2eaPTJzhmD-19" value="" style="rounded=1;whiteSpace=wrap;html=1;absoluteArcSize=1;arcSize=14;strokeWidth=2;" vertex="1" parent="1">
          <mxGeometry x="640" y="80" width="100" height="200" as="geometry" />
        </mxCell>
        <mxCell id="EYJ2kRQVxU2eaPTJzhmD-21" value="Существующие игры" style="text;html=1;strokeColor=none;fillColor=none;align=center;verticalAlign=middle;whiteSpace=wrap;rounded=0;" vertex="1" parent="1">
          <mxGeometry x="670" y="50" width="40" height="20" as="geometry" />
        </mxCell>
        <mxCell id="EYJ2kRQVxU2eaPTJzhmD-58" style="edgeStyle=orthogonalEdgeStyle;rounded=0;orthogonalLoop=1;jettySize=auto;html=1;exitX=1;exitY=0.5;exitDx=0;exitDy=0;endArrow=none;endFill=0;" edge="1" parent="1" source="EYJ2kRQVxU2eaPTJzhmD-23">
          <mxGeometry relative="1" as="geometry">
            <mxPoint x="770" y="180" as="targetPoint" />
          </mxGeometry>
        </mxCell>
        <mxCell id="EYJ2kRQVxU2eaPTJzhmD-23" value="Игра 1" style="rounded=0;whiteSpace=wrap;html=1;" vertex="1" parent="1">
          <mxGeometry x="640" y="90" width="100" height="30" as="geometry" />
        </mxCell>
        <mxCell id="EYJ2kRQVxU2eaPTJzhmD-59" style="edgeStyle=orthogonalEdgeStyle;rounded=0;orthogonalLoop=1;jettySize=auto;html=1;exitX=1;exitY=0.5;exitDx=0;exitDy=0;endArrow=none;endFill=0;" edge="1" parent="1" source="EYJ2kRQVxU2eaPTJzhmD-24">
          <mxGeometry relative="1" as="geometry">
            <mxPoint x="770" y="134.9411764705883" as="targetPoint" />
          </mxGeometry>
        </mxCell>
        <mxCell id="EYJ2kRQVxU2eaPTJzhmD-24" value="Игра 2" style="rounded=0;whiteSpace=wrap;html=1;" vertex="1" parent="1">
          <mxGeometry x="640" y="120" width="100" height="30" as="geometry" />
        </mxCell>
        <mxCell id="EYJ2kRQVxU2eaPTJzhmD-61" style="edgeStyle=orthogonalEdgeStyle;rounded=0;orthogonalLoop=1;jettySize=auto;html=1;exitX=1;exitY=0.5;exitDx=0;exitDy=0;endArrow=none;endFill=0;" edge="1" parent="1" source="EYJ2kRQVxU2eaPTJzhmD-25">
          <mxGeometry relative="1" as="geometry">
            <mxPoint x="770" y="165.52941176470586" as="targetPoint" />
          </mxGeometry>
        </mxCell>
        <mxCell id="EYJ2kRQVxU2eaPTJzhmD-25" value="Игра 3" style="rounded=0;whiteSpace=wrap;html=1;" vertex="1" parent="1">
          <mxGeometry x="640" y="150" width="100" height="30" as="geometry" />
        </mxCell>
        <mxCell id="EYJ2kRQVxU2eaPTJzhmD-62" style="edgeStyle=orthogonalEdgeStyle;rounded=0;orthogonalLoop=1;jettySize=auto;html=1;exitX=1;exitY=0.5;exitDx=0;exitDy=0;endArrow=none;endFill=0;" edge="1" parent="1" source="EYJ2kRQVxU2eaPTJzhmD-26">
          <mxGeometry relative="1" as="geometry">
            <mxPoint x="770" y="194.9411764705883" as="targetPoint" />
          </mxGeometry>
        </mxCell>
        <mxCell id="EYJ2kRQVxU2eaPTJzhmD-26" value="Игра 4" style="rounded=0;whiteSpace=wrap;html=1;" vertex="1" parent="1">
          <mxGeometry x="640" y="180" width="100" height="30" as="geometry" />
        </mxCell>
        <mxCell id="EYJ2kRQVxU2eaPTJzhmD-63" style="edgeStyle=orthogonalEdgeStyle;rounded=0;orthogonalLoop=1;jettySize=auto;html=1;exitX=1;exitY=0.5;exitDx=0;exitDy=0;endArrow=none;endFill=0;" edge="1" parent="1" source="EYJ2kRQVxU2eaPTJzhmD-27">
          <mxGeometry relative="1" as="geometry">
            <mxPoint x="770" y="225.52941176470586" as="targetPoint" />
          </mxGeometry>
        </mxCell>
        <mxCell id="EYJ2kRQVxU2eaPTJzhmD-27" value="Игра 5" style="rounded=0;whiteSpace=wrap;html=1;" vertex="1" parent="1">
          <mxGeometry x="640" y="210" width="100" height="30" as="geometry" />
        </mxCell>
        <mxCell id="EYJ2kRQVxU2eaPTJzhmD-28" value="..." style="rounded=0;whiteSpace=wrap;html=1;" vertex="1" parent="1">
          <mxGeometry x="640" y="240" width="100" height="30" as="geometry" />
        </mxCell>
        <mxCell id="EYJ2kRQVxU2eaPTJzhmD-31" value="" style="rounded=1;whiteSpace=wrap;html=1;absoluteArcSize=1;arcSize=14;strokeWidth=2;" vertex="1" parent="1">
          <mxGeometry x="640" y="350" width="100" height="200" as="geometry" />
        </mxCell>
        <mxCell id="EYJ2kRQVxU2eaPTJzhmD-32" value="Игры, созданные пользователем" style="text;html=1;strokeColor=none;fillColor=none;align=center;verticalAlign=middle;whiteSpace=wrap;rounded=0;" vertex="1" parent="1">
          <mxGeometry x="670" y="315" width="40" height="20" as="geometry" />
        </mxCell>
        <mxCell id="EYJ2kRQVxU2eaPTJzhmD-57" style="edgeStyle=orthogonalEdgeStyle;rounded=0;orthogonalLoop=1;jettySize=auto;html=1;exitX=1;exitY=0.5;exitDx=0;exitDy=0;endArrow=none;endFill=0;" edge="1" parent="1" source="EYJ2kRQVxU2eaPTJzhmD-34">
          <mxGeometry relative="1" as="geometry">
            <mxPoint x="770" y="374.9411764705883" as="targetPoint" />
          </mxGeometry>
        </mxCell>
        <mxCell id="EYJ2kRQVxU2eaPTJzhmD-34" value="Игра 1" style="rounded=0;whiteSpace=wrap;html=1;" vertex="1" parent="1">
          <mxGeometry x="640" y="360" width="100" height="30" as="geometry" />
        </mxCell>
        <mxCell id="EYJ2kRQVxU2eaPTJzhmD-56" style="edgeStyle=orthogonalEdgeStyle;rounded=0;orthogonalLoop=1;jettySize=auto;html=1;exitX=1;exitY=0.5;exitDx=0;exitDy=0;endArrow=none;endFill=0;" edge="1" parent="1" source="EYJ2kRQVxU2eaPTJzhmD-35">
          <mxGeometry relative="1" as="geometry">
            <mxPoint x="770" y="405.52941176470586" as="targetPoint" />
          </mxGeometry>
        </mxCell>
        <mxCell id="EYJ2kRQVxU2eaPTJzhmD-35" value="Игра 2" style="rounded=0;whiteSpace=wrap;html=1;" vertex="1" parent="1">
          <mxGeometry x="640" y="390" width="100" height="30" as="geometry" />
        </mxCell>
        <mxCell id="EYJ2kRQVxU2eaPTJzhmD-55" style="edgeStyle=orthogonalEdgeStyle;rounded=0;orthogonalLoop=1;jettySize=auto;html=1;exitX=1;exitY=0.5;exitDx=0;exitDy=0;endArrow=none;endFill=0;" edge="1" parent="1" source="EYJ2kRQVxU2eaPTJzhmD-36">
          <mxGeometry relative="1" as="geometry">
            <mxPoint x="770" y="434.9411764705883" as="targetPoint" />
          </mxGeometry>
        </mxCell>
        <mxCell id="EYJ2kRQVxU2eaPTJzhmD-36" value="Игра 3" style="rounded=0;whiteSpace=wrap;html=1;" vertex="1" parent="1">
          <mxGeometry x="640" y="420" width="100" height="30" as="geometry" />
        </mxCell>
        <mxCell id="EYJ2kRQVxU2eaPTJzhmD-53" style="edgeStyle=orthogonalEdgeStyle;rounded=0;orthogonalLoop=1;jettySize=auto;html=1;exitX=1;exitY=0.5;exitDx=0;exitDy=0;endArrow=none;endFill=0;" edge="1" parent="1" source="EYJ2kRQVxU2eaPTJzhmD-37">
          <mxGeometry relative="1" as="geometry">
            <mxPoint x="770" y="465.52941176470586" as="targetPoint" />
          </mxGeometry>
        </mxCell>
        <mxCell id="EYJ2kRQVxU2eaPTJzhmD-37" value="Игра 4" style="rounded=0;whiteSpace=wrap;html=1;" vertex="1" parent="1">
          <mxGeometry x="640" y="450" width="100" height="30" as="geometry" />
        </mxCell>
        <mxCell id="EYJ2kRQVxU2eaPTJzhmD-52" style="edgeStyle=orthogonalEdgeStyle;rounded=0;orthogonalLoop=1;jettySize=auto;html=1;exitX=1;exitY=0.5;exitDx=0;exitDy=0;entryX=0;entryY=0.5;entryDx=0;entryDy=0;" edge="1" parent="1" source="EYJ2kRQVxU2eaPTJzhmD-38" target="EYJ2kRQVxU2eaPTJzhmD-46">
          <mxGeometry relative="1" as="geometry">
            <Array as="points">
              <mxPoint x="770" y="495" />
              <mxPoint x="770" y="180" />
            </Array>
          </mxGeometry>
        </mxCell>
        <mxCell id="EYJ2kRQVxU2eaPTJzhmD-38" value="Игра 5" style="rounded=0;whiteSpace=wrap;html=1;" vertex="1" parent="1">
          <mxGeometry x="640" y="480" width="100" height="30" as="geometry" />
        </mxCell>
        <mxCell id="EYJ2kRQVxU2eaPTJzhmD-39" value="..." style="rounded=0;whiteSpace=wrap;html=1;" vertex="1" parent="1">
          <mxGeometry x="640" y="510" width="100" height="30" as="geometry" />
        </mxCell>
        <mxCell id="EYJ2kRQVxU2eaPTJzhmD-42" style="edgeStyle=orthogonalEdgeStyle;rounded=0;orthogonalLoop=1;jettySize=auto;html=1;exitX=1;exitY=0.5;exitDx=0;exitDy=0;" edge="1" parent="1" source="EYJ2kRQVxU2eaPTJzhmD-40" target="EYJ2kRQVxU2eaPTJzhmD-41">
          <mxGeometry relative="1" as="geometry" />
        </mxCell>
        <mxCell id="EYJ2kRQVxU2eaPTJzhmD-40" value="Добавить игру" style="rounded=1;whiteSpace=wrap;html=1;absoluteArcSize=1;arcSize=14;strokeWidth=2;" vertex="1" parent="1">
          <mxGeometry x="645" y="520" width="90" height="20" as="geometry" />
        </mxCell>
        <mxCell id="EYJ2kRQVxU2eaPTJzhmD-41" value="" style="rounded=1;whiteSpace=wrap;html=1;absoluteArcSize=1;arcSize=14;strokeWidth=2;" vertex="1" parent="1">
          <mxGeometry x="830" y="350" width="100" height="200" as="geometry" />
        </mxCell>
        <mxCell id="EYJ2kRQVxU2eaPTJzhmD-43" value="Добавление игры" style="text;html=1;strokeColor=none;fillColor=none;align=center;verticalAlign=middle;whiteSpace=wrap;rounded=0;" vertex="1" parent="1">
          <mxGeometry x="860" y="315" width="40" height="20" as="geometry" />
        </mxCell>
        <mxCell id="EYJ2kRQVxU2eaPTJzhmD-44" value="Заполняемая форма добавления игры" style="rounded=0;whiteSpace=wrap;html=1;" vertex="1" parent="1">
          <mxGeometry x="840" y="360" width="80" height="150" as="geometry" />
        </mxCell>
        <mxCell id="EYJ2kRQVxU2eaPTJzhmD-45" value="Добавить игру" style="rounded=1;whiteSpace=wrap;html=1;absoluteArcSize=1;arcSize=14;strokeWidth=2;" vertex="1" parent="1">
          <mxGeometry x="835" y="520" width="90" height="20" as="geometry" />
        </mxCell>
        <mxCell id="EYJ2kRQVxU2eaPTJzhmD-46" value="" style="rounded=1;whiteSpace=wrap;html=1;absoluteArcSize=1;arcSize=14;strokeWidth=2;" vertex="1" parent="1">
          <mxGeometry x="830" y="80" width="100" height="200" as="geometry" />
        </mxCell>
        <mxCell id="EYJ2kRQVxU2eaPTJzhmD-47" value="Информация об игре" style="text;html=1;strokeColor=none;fillColor=none;align=center;verticalAlign=middle;whiteSpace=wrap;rounded=0;" vertex="1" parent="1">
          <mxGeometry x="860" y="50" width="40" height="20" as="geometry" />
        </mxCell>
        <mxCell id="EYJ2kRQVxU2eaPTJzhmD-51" value="&lt;h1&gt;&lt;font style=&quot;font-size: 16px&quot;&gt;Название&lt;/font&gt;&lt;/h1&gt;&lt;p&gt;Lorem ipsum dolor sit amet, consectetur adipisicing elit, sed do eiusmod tempor incididunt ut labore et dolore magna aliqua.&lt;/p&gt;" style="text;html=1;strokeColor=none;fillColor=none;spacing=5;spacingTop=-20;whiteSpace=wrap;overflow=hidden;rounded=0;" vertex="1" parent="1">
          <mxGeometry x="832.5" y="87" width="95" height="183" as="geometry" />
        </mxCell>
      </root>
    </mxGraphModel>
  </diagram>
</mxfile>
